<svg height="512" viewBox="0 0 512 512" width="512" xmlns="http://www.w3.org/2000/svg"><path d="m168 320h176a48 48 0 0 1 48 48v128a0 0 0 0 1 0 0h-272a0 0 0 0 1 0 0v-128a48 48 0 0 1 48-48z" fill="#a5c3dc"/><path d="m200 320h-32a48 48 0 0 1 48 48v96h32v-96a48 48 0 0 0 -48-48z" fill="#4b55a5"/><path d="m104 320h64a48 48 0 0 0 -48 48v128h-64v-128a48 48 0 0 1 48-48z" fill="#6478b9"/><path d="m128 320h16a48 48 0 0 0 -48 48v72a8 8 0 0 1 -8 8 8 8 0 0 1 -8-8v-72a48 48 0 0 1 48-48z" fill="#a5c3dc"/><path d="m168 288h112v32h-112z" fill="#f0915a"/><path d="m280 16a112 112 0 0 1 112 112v112a48 48 0 0 1 -48 48h-176a0 0 0 0 1 0 0v-160a112 112 0 0 1 112-112z" fill="#fab991"/><path d="m312 16h-48a112 112 0 0 0 -112 112v192h64a32 32 0 0 0 32-32v-128a32 32 0 0 0 32-32h112a16 16 0 0 0 16-16 96 96 0 0 0 -96-96z" fill="#353744"/><path d="m248 160v80a40 40 0 0 1 0-80z" fill="#f0915a"/><circle cx="318.667" cy="160" fill="#353744" r="12"/><circle cx="358.667" cy="160" fill="#353744" r="12"/><path d="m338.667 173.333a32 32 0 0 1 32 32v2.667a16 16 0 0 1 -16 16 16 16 0 0 1 -16-16v-34.667a0 0 0 0 1 0 0z" fill="#f0915a"/><path d="m232 320a48 48 0 0 1 48 48v8a24 24 0 0 0 24 24 24 24 0 0 0 24-24v-8a48 48 0 0 0 -48-48z" fill="#f0915a"/><path d="m216 464v-96a48 48 0 0 0 -48-48 48 48 0 0 0 -48 48v128h272v-32z" fill="#d7e6f0"/><path d="m328 240h32a0 0 0 0 1 0 0 16 16 0 0 1 -16 16 16 16 0 0 1 -16-16 0 0 0 0 1 0 0z" fill="#353744"/><path d="m392 464h48a16 16 0 0 1 16 16v16a0 0 0 0 1 0 0h-64a0 0 0 0 1 0 0v-32a0 0 0 0 1 0 0z" fill="#f0915a"/><path d="m288 352h144a8 8 0 0 1 8 8v104a0 0 0 0 1 0 0h-160a0 0 0 0 1 0 0v-104a8 8 0 0 1 8-8z" fill="#f04b37"/><path d="m320 352h112a8 8 0 0 1 8 8v104a0 0 0 0 1 0 0h-128a0 0 0 0 1 0 0v-104a8 8 0 0 1 8-8z" fill="#d7322d"/><path d="m280 288h48v32h-48z" fill="#353744"/></svg>